<?xml version="1.0" encoding="UTF-8"?>
<svg xmlns="http://www.w3.org/2000/svg" width="1024" height="1024" viewBox="0 0 1024 1024">
<path d="M317.43 613.80 L331.62 611.80 A8.19 8.19 0 0 1 340.87 618.78 L340.87 618.78 A8.19 8.19 0 0 1 333.90 628.03 L319.71 630.02 A8.19 8.19 0 0 1 310.45 623.05 L310.45 623.05 A8.19 8.19 0 0 1 317.43 613.80 Z" fill="#B7C4D0"/><path d="M372.18 606.10 L386.38 604.11 A8.19 8.19 0 0 1 395.63 611.08 L395.63 611.08 A8.19 8.19 0 0 1 388.66 620.33 L374.46 622.33 A8.19 8.19 0 0 1 365.21 615.35 L365.21 615.35 A8.19 8.19 0 0 1 372.18 606.10 Z" fill="#B7C4D0"/><path d="M426.94 598.41 L441.14 596.41 A8.19 8.19 0 0 1 450.39 603.38 L450.39 603.38 A8.19 8.19 0 0 1 443.42 612.64 L429.22 614.63 A8.19 8.19 0 0 1 419.97 607.66 L419.97 607.66 A8.19 8.19 0 0 1 426.94 598.41 Z" fill="#B7C4D0"/><path d="M481.70 590.71 L495.90 588.72 A8.19 8.19 0 0 1 505.15 595.69 L505.15 595.69 A8.19 8.19 0 0 1 498.18 604.94 L483.98 606.94 A8.19 8.19 0 0 1 474.73 599.96 L474.73 599.96 A8.19 8.19 0 0 1 481.70 590.71 Z" fill="#B7C4D0"/><path d="M536.46 583.02 L550.65 581.02 A8.19 8.19 0 0 1 559.91 587.99 L559.91 587.99 A8.19 8.19 0 0 1 552.93 597.24 L538.74 599.24 A8.19 8.19 0 0 1 529.49 592.27 L529.49 592.27 A8.19 8.19 0 0 1 536.46 583.02 Z" fill="#B7C4D0"/><path d="M591.22 575.32 L605.41 573.32 A8.19 8.19 0 0 1 614.66 580.30 L614.66 580.30 A8.19 8.19 0 0 1 607.69 589.55 L593.50 591.54 A8.19 8.19 0 0 1 584.24 584.57 L584.24 584.57 A8.19 8.19 0 0 1 591.22 575.32 Z" fill="#B7C4D0"/><path d="M645.97 567.62 L660.17 565.63 A8.19 8.19 0 0 1 669.42 572.60 L669.42 572.60 A8.19 8.19 0 0 1 662.45 581.85 L648.25 583.85 A8.19 8.19 0 0 1 639.00 576.88 L639.00 576.88 A8.19 8.19 0 0 1 645.97 567.62 Z" fill="#B7C4D0"/><path d="M700.73 559.93 L714.93 557.93 A8.19 8.19 0 0 1 724.18 564.91 L724.18 564.91 A8.19 8.19 0 0 1 717.21 574.16 L703.01 576.15 A8.19 8.19 0 0 1 693.76 569.18 L693.76 569.18 A8.19 8.19 0 0 1 700.73 559.93 Z" fill="#B7C4D0"/>
</svg>
